Coordinates
version=1
nRows=10
nColumns=40
inDegrees=yes

Units are S.I. units (second, meters, Newtons, ...)
If the header above contains a line with 'inDegrees', this indicates whether rotational values are in degrees (yes) or radians (no).

endheader
time	pelvis_tilt	pelvis_list	pelvis_rotation	pelvis_tx	pelvis_ty	pelvis_tz	hip_flexion_r	hip_adduction_r	hip_rotation_r	knee_angle_r	knee_angle_r_beta	ankle_angle_r	subtalar_angle_r	mtp_angle_r	hip_flexion_l	hip_adduction_l	hip_rotation_l	knee_angle_l	knee_angle_l_beta	ankle_angle_l	subtalar_angle_l	mtp_angle_l	lumbar_extension	lumbar_bending	lumbar_rotation	arm_flex_r	arm_add_r	arm_rot_r	elbow_flex_r	pro_sup_r	wrist_flex_r	wrist_dev_r	arm_flex_l	arm_add_l	arm_rot_l	elbow_flex_l	pro_sup_l	wrist_flex_l	wrist_dev_l
      6.02500000000000035527	     16.91684934948032648094	      1.95084617408877680766	   -172.18106763388129820669	      0.36961883543711471223	      0.74991718094400960926	     -0.95558963981718669789	     37.62234442733047501406	    -42.58030053037241202674	    -37.73443666063274548605	     26.03400328207274583292	      0.45437907474717947887	    -21.09749502007488430877	      0.00000000000000000000	      0.00000000000000000000	     47.24397222617549374490	    -34.65114443310606873183	    -27.48916527991773861572	     22.16800586104709225310	      0.38690469087667234138	    -23.78883550061744855952	      0.00000000000000000000	      0.00000000000000000000	    -43.42735977601481067722	      9.23201108914587109666	      5.63244300337025105563	     49.48051784218063886556	    -12.37233373548158787969	     26.98834298891364014139	      1.31084027059998176057	     77.85134473794170162364	      0.00000000000000000000	      0.00000000000000000000	     43.77931487181177061530	      3.15352222729832565307	     48.17989279903309807196	      1.18937316631140910239	      5.33602022596545744193	      0.00000000000000000000	      0.00000000000000000000
      6.03000000000000024869	     16.86880989811619002694	      1.89129383715737131588	   -172.09940524748714096859	      0.36931107237920884900	      0.75037554902694414416	     -0.95549513009441278122	     37.44148768896306478382	    -42.56729279494430784325	    -37.69576935408283446804	     25.85983752517559963735	      0.45133930884509626535	    -21.05718545929480001178	      0.00000000000000000000	      0.00000000000000000000	     47.01915717181599063679	    -34.45486902885330948720	    -27.47357602562012957037	     21.88729118008188834210	      0.38200529543514410991	    -23.83325753686604642212	      0.00000000000000000000	      0.00000000000000000000	    -43.05069219188750651028	      9.22429622756274447681	      5.54881092728402336434	     49.14379641205857041086	    -12.43494529724790709224	     27.35361880690220814927	      1.29130606444030182622	     79.06396896059149526081	      0.00000000000000000000	      0.00000000000000000000	     43.18652915191418628638	      2.96870277120807868343	     50.29055786512664383281	      1.18722017190074313753	      5.41753055806388683635	      0.00000000000000000000	      0.00000000000000000000
      6.03500000000000014211	     16.70719228578948900577	      1.91203493591813900032	   -172.01134028795829067349	      0.36879187535624785577	      0.75113371720676558319	     -0.95539030251198664434	     37.03382810794729351755	    -42.45499117473783456944	    -37.78482762375808334809	     25.63769261800884180502	      0.44746214879849915969	    -21.08515064582925546688	      0.00000000000000000000	      0.00000000000000000000	     46.71037407620924142293	    -34.33911975712290853835	    -27.44693238972905646733	     21.61023021319622827718	      0.37716966933423035080	    -23.90820757638367766162	      0.00000000000000000000	      0.00000000000000000000	    -42.80874593980920650438	      9.25523247857596409460	      5.52619698048663998691	     48.79388473838020701123	    -12.42428282950598017464	     27.66947320834389145716	      1.28635352152864923525	     78.17510640408288224990	      0.00000000000000000000	      0.00000000000000000000	     42.71961466912593863299	      2.89301608253184783237	     51.50269520977349202440	      1.18168556164167015687	      5.52486530688525068200	      0.00000000000000000000	      0.00000000000000000000
      6.04000000000000003553	     16.65931840606245373237	      1.86254854853141860183	   -171.91740431963847868246	      0.36845595388128438152	      0.75151630373479350045	     -0.95536733677399987563	     36.83528992361236475972	    -42.43679249168512512824	    -37.75439704074140934154	     25.47294853204108378009	      0.44458682207517319362	    -21.04087115954627407177	      0.00000000000000000000	      0.00000000000000000000	     46.52252361209190212321	    -34.16061087713143962219	    -27.41002885124898824643	     21.36057739362768259639	      0.37281240564587186936	    -23.96496653758278938540	      0.00000000000000000000	      0.00000000000000000000	    -42.43290343691181476515	      9.19797813689866572417	      5.45301276425564651618	     48.43327192603050690423	    -12.44352705208506826295	     27.46758257165217997908	      1.29849111399047401072	     78.30420932957969171184	      0.00000000000000000000	      0.00000000000000000000	     42.48604256348586005743	      2.90621734696535138909	     51.56809609105218328295	      1.18151653680836310478	      5.35357072885460461009	      0.00000000000000000000	      0.00000000000000000000
      6.04499999999999992895	     16.61450686994495384852	      1.96967144507695857136	   -171.61517048602649992972	      0.36833316653938458218	      0.75183344039393140701	     -0.95483499757636913774	     36.44420653996153447451	    -42.42775309050131227195	    -37.95519282562614904464	     25.32793754593796720087	      0.44205590291611007725	    -21.09676758014783715112	      0.00000000000000000000	      0.00000000000000000000	     46.58138303801457880127	    -33.91859085709042886947	    -26.97933016785338367072	     21.11544211167361950743	      0.36853398786296887035	    -24.04767123153547103698	      0.00000000000000000000	      0.00000000000000000000	    -42.01317624152994767428	      9.41794740228763060941	      4.86832544253765409081	     48.04976285660759316443	    -12.02945055293039189337	     30.61041963798843568156	      1.27903301708563565953	     74.11708856068851503096	      0.00000000000000000000	      0.00000000000000000000	     42.62348405535802697841	      2.78907623587346309435	     47.02966121931885368213	      1.18494623758137973546	      6.51716793293531804210	      0.00000000000000000000	      0.00000000000000000000
      6.04999999999999982236	     16.47449558450606943438	      1.94787261401754396850	   -171.70697896272460525324	      0.36765685979596823829	      0.75246917891166342773	     -0.95524157770604634088	     36.26629957273742377311	    -42.26587935389999728386	    -37.83072944299923534572	     25.20099924787061240750	      0.43984041166795678768	    -21.03371127102058935066	      0.00000000000000000000	      0.00000000000000000000	     46.22093335436721872611	    -33.97651911227053744824	    -27.20755378504615151769	     20.94535832151458976114	      0.36556546572042264431	    -24.12347279699112334583	      0.00000000000000000000	      0.00000000000000000000	    -41.73610757992039310693	      9.28038693143318837997	      5.42169711330303005781	     47.71198199424272701208	    -12.51021619378924221166	     27.26390273569354860683	      1.29896004538146736529	     78.55834863131293843708	      0.00000000000000000000	      0.00000000000000000000	     41.44350597016217818691	      2.70521311783779649929	     54.88164467070146201877	      1.17397569610317820121	      5.23294208339502464611	      0.00000000000000000000	      0.00000000000000000000
      6.05499999999999971578	     16.36709478105956705463	      1.96979801545766108894	   -171.62090569228237768584	      0.36717154788865941084	      0.75302847126245264775	     -0.95516224825679807431	     35.98906728480908157053	    -42.19287288241743283379	    -37.83010941515010472358	     25.07784887917231841925	      0.43769103225912658894	    -21.07809100033576399369	      0.00000000000000000000	      0.00000000000000000000	     46.01574326756640687108	    -33.88730473215131411280	    -27.17559687997763617773	     20.74789503329345308202	      0.36211908118914926114	    -24.16354896413151465140	      0.00000000000000000000	      0.00000000000000000000	    -41.40354764416493082990	      9.29420872835931533018	      5.35591856179105185731	     47.37705222339808130982	    -12.49278506981772451923	     27.09635223038669593620	      1.29808496236635906307	     78.61690089590786101326	      0.00000000000000000000	      0.00000000000000000000	     41.24801567381022948666	      2.68432444880785636698	     54.67197010956343206090	      1.17956189335426064879	      5.27634344581558334397	      0.00000000000000000000	      0.00000000000000000000
      6.05999999999999960920	     16.29548428136386917231	      2.00166976757579195834	   -171.53313384401502617038	      0.36673569831836283495	      0.75352566195976911079	     -0.95513338227627586630	     35.75578156251197015081	    -42.11123732541175002098	    -37.82553146891176965028	     24.96209796335317321336	      0.43567079766588373557	    -21.08310563050359576209	      0.00000000000000000000	      0.00000000000000000000	     45.86435164112441498219	    -33.79721496115853085485	    -27.08144287378958381396	     20.52963967731534467021	      0.35830980661721900660	    -24.26774161606611102115	      0.00000000000000000000	      0.00000000000000000000	    -41.02811714535010167992	      9.32040533878307364546	      5.31435956205366633043	     47.03042619340531871330	    -12.48347108719562648105	     26.88088600154887330973	      1.29993435271843038592	     78.63109768655523623693	      0.00000000000000000000	      0.00000000000000000000	     40.84666737384897317042	      2.59335257548947417661	     55.68819272394468811171	      1.16899239967167400955	      5.35930639723657087359	      0.00000000000000000000	      0.00000000000000000000
      6.06500000000000039080	     16.26234012868197709167	      2.06538553446211947673	   -171.48702820952595970994	      0.36633365484218871622	      0.75391529308837756940	     -0.95517565105715152018	     35.58192768468367717105	    -41.98056451551726553362	    -37.81117879965582062596	     24.83803136104552322649	      0.43350542696385285790	    -21.08899926873268171335	      0.00000000000000000000	      0.00000000000000000000	     45.77410797738467351792	    -33.77921640983010576065	    -27.04347678515614106232	     20.36154531199713346723	      0.35537600648836603634	    -24.33567666354371894499	      0.00000000000000000000	      0.00000000000000000000	    -40.59291060656834559950	      9.33153743252711009859	      5.32588258269585157478	     46.65056725534664394672	    -12.48593298186788835835	     26.71980114549830176429	      1.29490376068033041790	     78.67568034488179762320	      0.00000000000000000000	      0.00000000000000000000	     40.44177654346817973874	      2.47847638019200067205	     57.07267251629458826301	      1.16899663952137067291	      5.22961961142985032325	      0.00000000000000000000	      0.00000000000000000000
      6.07000000000000028422	     16.17122477098675403795	      2.15559123356608850486	   -171.41696374133914559934	      0.36593217225131946524	      0.75445047735085368767	     -0.95522076157869850732	     35.28885685073860400962	    -41.82419023870871654935	    -37.87560898914563267681	     24.69949651314722771644	      0.43108753773927804831	    -21.05281826967787495164	      0.00000000000000000000	      0.00000000000000000000	     45.61842491410178723754	    -33.74216764179138294821	    -26.92568527147896872975	     20.13660644460367876718	      0.35145008263664334613	    -24.36776095126401742164	      0.00000000000000000000	      0.00000000000000000000	    -40.22333809366029555576	      9.38590404394129507182	      5.33966738880681290880	     46.29907297038579372384	    -12.48827244605518238529	     26.54762790399185234946	      1.29715491666681459471	     78.72437724247085100160	      0.00000000000000000000	      0.00000000000000000000	     40.12845153185983804178	      2.35106578553075706850	     58.23944719994418761644	      1.16688000590255436251	      5.23750799003266731546	      0.00000000000000000000	      0.00000000000000000000
